# Blender v2.71 (sub 0) OBJ File: 'untitled.blend'
# www.blender.org
v -0.630707 -0.789720 0.010649
v -0.281728 -0.372307 -1.953254
v 0.281728 -0.372307 -1.953254
v 0.630707 -0.789720 0.010649
v -1.266167 1.000000 1.000000
v -0.565580 0.162027 -2.942605
v 0.565580 0.162027 -2.942605
v 1.266167 1.000000 1.000000
v -0.846017 1.018152 0.345866
v -0.377904 0.458242 -2.288470
v 0.377904 0.458242 -2.288470
v 0.846017 1.018152 0.345866
v -0.457541 1.177770 -0.258954
v -0.204378 0.874961 -1.683651
v 0.204378 0.874961 -1.683651
v 0.457541 1.177770 -0.258954
v -1.266167 -1.000000 4.355733
v 1.266167 -1.000000 4.355733
v -1.266167 1.000000 4.355733
v 1.266167 1.000000 4.355733
v -0.457213 1.000000 1.000000
v 0.457213 1.000000 1.000000
v -0.457213 1.000000 4.355733
v 0.457213 1.000000 4.355733
v -0.070486 1.924206 1.000000
v 0.070486 1.924206 1.000000
v -0.070486 1.924206 4.355733
v 0.070486 1.924206 4.355733
v -0.933556 -0.737309 3.936659
v 0.933556 -0.737309 3.936659
v -0.933556 0.737309 3.936659
v 0.933556 0.737309 3.936659
v -0.933556 0.000000 3.936659
v 0.933556 0.000000 3.936659
v 0.000000 0.737309 3.936659
v 0.000000 -0.737309 3.936659
v 0.000000 0.000000 3.936659
v -0.933556 0.368655 3.936659
v 0.933556 -0.368655 3.936659
v -0.466778 0.737309 3.936659
v 0.466778 -0.737309 3.936659
v -0.933556 -0.368655 3.936659
v 0.933556 0.368655 3.936659
v 0.466778 0.737309 3.936659
v -0.466778 -0.737309 3.936659
v 0.000000 -0.368655 3.936659
v 0.000000 0.368655 3.936659
v -0.933556 0.552982 3.936659
v 0.933556 -0.552982 3.936659
v -0.700167 0.737309 3.936659
v 0.700167 -0.737309 3.936659
v -0.933556 -0.552982 3.936659
v 0.933556 0.552982 3.936659
v 0.700167 0.737309 3.936659
v -0.700167 -0.737309 3.936659
v 0.000000 -0.552982 3.936659
v 0.000000 0.552982 3.936659
v 0.700167 0.000000 3.936659
v -0.233389 0.000000 3.936659
v -0.933556 0.184327 3.936659
v 0.933556 -0.184327 3.936659
v -0.233389 0.737309 3.936659
v 0.233389 -0.737309 3.936659
v -0.933556 -0.184327 3.936659
v 0.933556 0.184327 3.936659
v 0.233389 0.737309 3.936659
v -0.233389 -0.737309 3.936659
v 0.000000 -0.184327 3.936659
v 0.000000 0.184327 3.936659
v 0.233389 0.000000 3.936659
v -0.700167 0.000000 3.936659
v -0.466778 -0.552982 3.936659
v -0.233389 -0.368655 3.936659
v -0.700167 -0.368655 3.936659
v 0.466778 -0.552982 3.936659
v 0.700167 -0.368655 3.936659
v 0.233389 -0.368655 3.936659
v 0.466778 0.552982 3.936659
v 0.700167 0.368655 3.936659
v 0.233389 0.368655 3.936659
v -0.466778 0.552982 3.936659
v -0.233389 0.368655 3.936659
v -0.700167 0.368655 3.936659
v -0.700167 -0.552982 3.936659
v 0.233389 -0.552982 3.936659
v 0.233389 0.184327 3.936659
v -0.700167 0.184327 3.936659
v -0.233389 -0.552982 3.936659
v -0.233389 -0.184327 3.936659
v -0.700167 -0.184327 3.936659
v 0.700167 -0.552982 3.936659
v 0.700167 -0.184327 3.936659
v 0.233389 -0.184327 3.936659
v 0.700167 0.184327 3.936659
v 0.700167 0.552982 3.936659
v 0.233389 0.552982 3.936659
v -0.233389 0.184327 3.936659
v -0.233389 0.552982 3.936659
v -0.700167 0.552982 3.936659
v 0.466778 -0.000000 5.302430
v -0.466778 -0.000000 5.302430
v -0.466778 -0.226647 5.302430
v 0.466778 -0.226647 5.302430
v 0.466778 0.226647 5.302430
v -0.466778 0.226647 5.302430
v 0.700167 -0.000000 5.302430
v -0.233389 -0.000000 5.302430
v 0.233389 -0.000000 5.302430
v -0.700167 -0.000000 5.302430
v -0.466778 -0.339970 5.302430
v -0.466778 -0.113323 5.302430
v -0.233389 -0.226647 5.302430
v -0.700167 -0.226647 5.302430
v 0.466778 -0.339970 5.302430
v 0.466778 -0.113323 5.302430
v 0.700167 -0.226647 5.302430
v 0.233389 -0.226647 5.302430
v 0.466778 0.113323 5.302430
v 0.466778 0.339970 5.302430
v 0.700167 0.226647 5.302430
v 0.233389 0.226647 5.302430
v -0.466778 0.113323 5.302430
v -0.466778 0.339970 5.302430
v -0.233389 0.226647 5.302430
v -0.700167 0.226647 5.302430
v -0.700167 -0.339970 5.302430
v 0.233389 -0.339970 5.302430
v 0.233389 0.113323 5.302430
v -0.700167 0.113323 5.302430
v -0.233389 -0.339970 5.302430
v -0.233389 -0.113323 5.302430
v -0.700167 -0.113323 5.302430
v 0.700167 -0.339970 5.302430
v 0.700167 -0.113323 5.302430
v 0.233389 -0.113323 5.302430
v 0.700167 0.113323 5.302430
v 0.700167 0.339970 5.302430
v 0.233389 0.339970 5.302430
v -0.233389 0.113323 5.302430
v -0.233389 0.339970 5.302430
v -0.700167 0.339970 5.302430
v -1.913249 -0.550923 1.753491
v 1.913249 -0.550923 1.753491
v -1.913249 0.550923 1.753491
v 1.913249 0.550923 1.753491
v -1.913249 -0.550923 3.602242
v 1.913249 -0.550923 3.602242
v -1.913249 0.550923 3.602242
v 1.913249 0.550923 3.602242
v -3.913249 0.172825 2.357002
v -3.913249 0.309866 2.357002
v -3.913249 0.172825 4.205753
v -3.913249 0.309866 4.205753
v 3.913249 0.172825 2.357002
v 3.913249 0.309866 2.357002
v 3.913249 0.172825 4.205753
v 3.913249 0.309866 4.205753
v -0.303359 -0.681398 -0.499002
v -0.135506 -0.480629 -1.443603
v 0.135506 -0.480629 -1.443603
v 0.303359 -0.681398 -0.499002
v -0.303359 -0.681398 0.197327
v -0.135506 -0.480629 -0.747274
v 0.135506 -0.480629 -0.747274
v 0.303359 -0.681398 0.197327
vn -0.555400 -0.787800 -0.266100
vn 0.000000 -0.879900 -0.475200
vn 0.954300 -0.277700 -0.110500
vn 0.000000 -0.859000 -0.512000
vn 0.000000 -0.978200 -0.207900
vn 0.000000 0.999600 0.027700
vn 0.000000 0.966900 0.255200
vn 0.443500 0.857400 -0.261000
vn 0.000000 0.911000 -0.412500
vn -0.443500 0.857400 -0.261000
vn 0.000000 0.978200 -0.207900
vn 0.690200 0.673100 -0.265700
vn 0.000000 0.823500 -0.567400
vn -0.690200 0.673100 -0.265700
vn 0.000000 0.847300 0.531100
vn 0.000000 1.000000 0.000000
vn 0.570200 0.821500 0.000000
vn -0.570200 0.821500 0.000000
vn -0.922500 0.386000 0.000000
vn 0.000000 0.000000 1.000000
vn 0.922500 0.386000 0.000000
vn 0.000000 0.000000 -1.000000
vn 0.000000 -0.847300 0.531100
vn -0.783300 0.000000 0.621700
vn 0.783300 0.000000 0.621700
vn 0.000000 0.988100 0.154100
vn 0.000000 -0.988100 0.154100
vn -1.000000 0.000000 0.000000
vn 1.000000 0.000000 0.000000
vn 0.000000 -1.000000 0.000000
vn 0.119700 0.992800 0.000000
vn -0.119700 0.992800 0.000000
vn 0.000000 0.859000 -0.512000
vn 0.758600 0.000000 0.651500
vn -0.758600 0.000000 0.651500
vn 0.000000 -0.990700 0.135700
vn 0.777000 0.069900 -0.625600
vn -0.805400 0.000000 -0.592700
vn -0.340300 -0.940300 0.000000
vn 0.288900 0.000000 0.957400
vn -0.288900 0.000000 -0.957400
vn 0.340300 -0.940300 0.000000
vn -0.288900 0.000000 0.957400
vn 0.288900 0.000000 -0.957400
vn -0.767200 -0.641400 0.000000
vn 0.767200 -0.641400 0.000000
vn -0.954300 -0.277700 -0.110500
vn 0.555400 -0.787800 -0.266100
vn 0.805400 0.000000 -0.592700
vn -0.777000 0.069900 -0.625600
s off
f 6//1 2//1 1//1
f 7//2 3//2 2//2
f 7//3 8//3 4//3
f 17//4 146//4 147//4
f 1//5 158//5 161//5
f 8//6 12//6 9//6
f 12//7 16//7 13//7
f 8//8 7//8 11//8
f 6//9 10//9 11//9
f 5//10 9//10 10//10
f 15//11 14//11 13//11
f 11//12 15//12 16//12
f 10//13 14//13 15//13
f 10//14 9//14 13//14
f 18//15 36//15 17//15
f 19//16 23//16 21//16
f 20//17 149//17 145//17
f 5//18 144//18 148//18
f 23//19 27//19 25//19
f 8//16 22//16 24//16
f 20//20 24//20 23//20
f 5//20 21//20 22//20
f 25//16 27//16 28//16
f 22//21 26//21 28//21
f 24//20 28//20 27//20
f 21//22 25//22 26//22
f 52//20 29//20 55//20
f 19//23 35//23 20//23
f 20//24 34//24 18//24
f 17//25 33//25 19//25
f 56//20 36//20 63//20
f 69//20 37//20 70//20
f 60//20 33//20 71//20
f 72//20 45//20 67//20
f 96//26 138//26 119//26
f 64//20 42//20 74//20
f 75//20 41//20 51//20
f 88//27 130//27 110//27
f 68//20 46//20 77//20
f 86//28 70//28 108//28
f 79//29 120//29 136//29
f 57//20 47//20 80//20
f 97//29 139//29 107//29
f 89//29 59//29 107//29
f 48//20 38//20 83//20
f 84//20 55//20 45//20
f 76//29 92//29 134//29
f 42//20 52//20 84//20
f 85//20 63//20 41//20
f 87//28 71//28 109//28
f 46//20 56//20 85//20
f 84//28 126//28 113//28
f 98//29 140//29 124//29
f 47//20 69//20 86//20
f 90//28 132//28 109//28
f 77//28 117//28 135//28
f 38//20 60//20 87//20
f 88//20 67//20 36//20
f 73//20 88//20 56//20
f 78//26 119//26 137//26
f 89//20 73//20 46//20
f 59//20 89//20 68//20
f 85//28 127//28 117//28
f 99//28 83//28 125//28
f 91//29 76//29 116//29
f 33//20 64//20 90//20
f 91//20 51//20 30//20
f 76//20 91//20 49//20
f 94//29 136//29 106//29
f 92//20 76//20 39//20
f 58//20 92//20 61//20
f 99//26 141//26 123//26
f 91//27 133//27 114//27
f 73//29 89//29 131//29
f 37//20 68//20 93//20
f 94//20 58//20 34//20
f 79//20 94//20 65//20
f 80//28 86//28 128//28
f 95//20 79//20 43//20
f 54//20 95//20 53//20
f 44//20 78//20 95//20
f 82//29 124//29 139//29
f 66//20 96//20 78//20
f 35//20 57//20 96//20
f 97//20 59//20 37//20
f 82//20 97//20 69//20
f 92//29 58//29 106//29
f 98//20 82//20 47//20
f 62//20 98//20 57//20
f 40//20 81//20 98//20
f 95//29 137//29 120//29
f 50//20 99//20 81//20
f 31//20 48//20 99//20
f 111//20 102//20 112//20
f 115//20 103//20 116//20
f 118//20 100//20 106//20
f 119//20 104//20 120//20
f 122//20 101//20 107//20
f 140//20 123//20 105//20
f 113//20 126//20 110//20
f 103//20 117//20 127//20
f 128//20 108//20 100//20
f 121//20 128//20 118//20
f 129//20 109//20 101//20
f 125//20 129//20 122//20
f 112//20 102//20 110//20
f 101//20 111//20 131//20
f 132//20 113//20 102//20
f 109//20 132//20 111//20
f 103//20 114//20 133//20
f 100//20 115//20 134//20
f 135//20 117//20 103//20
f 108//20 135//20 115//20
f 104//20 118//20 136//20
f 119//20 138//20 121//20
f 105//20 122//20 139//20
f 141//20 125//20 105//20
f 75//27 114//27 127//27
f 88//29 73//29 112//29
f 81//26 123//26 140//26
f 96//28 80//28 121//28
f 93//28 135//28 108//28
f 72//27 110//27 126//27
f 83//28 87//28 129//28
f 74//28 113//28 132//28
f 143//30 147//30 146//30
f 145//31 149//31 157//31
f 144//32 151//32 153//32
f 20//33 149//33 148//33
f 18//34 147//34 149//34
f 19//35 148//35 146//35
f 4//36 143//36 142//36
f 8//4 145//4 144//4
f 4//37 8//37 145//37
f 1//38 142//38 144//38
f 150//28 152//28 153//28
f 142//39 146//39 152//39
f 146//40 148//40 153//40
f 142//41 150//41 151//41
f 155//29 157//29 156//29
f 143//42 154//42 156//42
f 147//43 156//43 157//43
f 143//44 145//44 155//44
f 158//16 162//16 165//16
f 4//5 161//5 160//5
f 3//5 160//5 159//5
f 1//5 2//5 159//5
f 163//5 164//5 165//5
f 160//45 161//45 165//45
f 160//30 164//30 163//30
f 159//46 163//46 162//46
f 5//47 6//47 1//47
f 6//2 7//2 2//2
f 3//48 7//48 4//48
f 18//4 17//4 147//4
f 4//5 1//5 161//5
f 5//6 8//6 9//6
f 9//7 12//7 13//7
f 12//8 8//8 11//8
f 7//9 6//9 11//9
f 6//10 5//10 10//10
f 16//11 15//11 13//11
f 12//12 11//12 16//12
f 11//13 10//13 15//13
f 14//14 10//14 13//14
f 5//16 19//16 21//16
f 18//15 30//15 51//15
f 18//15 63//15 36//15
f 18//15 51//15 41//15
f 55//15 17//15 45//15
f 18//15 41//15 63//15
f 8//17 20//17 145//17
f 45//15 17//15 67//15
f 36//15 67//15 17//15
f 55//15 29//15 17//15
f 19//18 5//18 148//18
f 21//19 23//19 25//19
f 20//16 8//16 24//16
f 19//20 20//20 23//20
f 8//20 5//20 22//20
f 26//16 25//16 28//16
f 24//21 22//21 28//21
f 23//20 24//20 27//20
f 22//22 21//22 26//22
f 84//20 52//20 55//20
f 85//20 56//20 63//20
f 19//23 31//23 50//23
f 19//23 62//23 35//23
f 19//23 50//23 40//23
f 54//23 20//23 44//23
f 19//23 40//23 62//23
f 20//24 32//24 53//24
f 44//23 20//23 66//23
f 35//23 66//23 20//23
f 54//23 32//23 20//23
f 20//24 65//24 34//24
f 20//24 53//24 43//24
f 49//24 18//24 39//24
f 20//24 43//24 65//24
f 17//25 29//25 52//25
f 39//24 18//24 61//24
f 34//24 61//24 18//24
f 49//24 30//24 18//24
f 17//25 64//25 33//25
f 17//25 52//25 42//25
f 48//25 19//25 38//25
f 17//25 42//25 64//25
f 86//20 69//20 70//20
f 38//25 19//25 60//25
f 33//25 60//25 19//25
f 48//25 31//25 19//25
f 87//20 60//20 71//20
f 88//20 72//20 67//20
f 78//26 96//26 119//26
f 90//20 64//20 74//20
f 91//20 75//20 51//20
f 72//27 88//27 110//27
f 93//20 68//20 77//20
f 128//28 86//28 108//28
f 94//29 79//29 136//29
f 96//20 57//20 80//20
f 59//29 97//29 107//29
f 131//29 89//29 107//29
f 99//20 48//20 83//20
f 72//20 84//20 45//20
f 116//29 76//29 134//29
f 74//20 42//20 84//20
f 75//20 85//20 41//20
f 129//28 87//28 109//28
f 77//20 46//20 85//20
f 74//28 84//28 113//28
f 82//29 98//29 124//29
f 80//20 47//20 86//20
f 71//28 90//28 109//28
f 93//28 77//28 135//28
f 83//20 38//20 87//20
f 56//20 88//20 36//20
f 46//20 73//20 56//20
f 95//26 78//26 137//26
f 68//20 89//20 46//20
f 37//20 59//20 68//20
f 77//28 85//28 117//28
f 141//28 99//28 125//28
f 133//29 91//29 116//29
f 71//20 33//20 90//20
f 49//20 91//20 30//20
f 39//20 76//20 49//20
f 58//29 94//29 106//29
f 61//20 92//20 39//20
f 34//20 58//20 61//20
f 81//26 99//26 123//26
f 75//27 91//27 114//27
f 112//29 73//29 131//29
f 70//20 37//20 93//20
f 65//20 94//20 34//20
f 43//20 79//20 65//20
f 121//28 80//28 128//28
f 53//20 95//20 43//20
f 32//20 54//20 53//20
f 54//20 44//20 95//20
f 97//29 82//29 139//29
f 44//20 66//20 78//20
f 66//20 35//20 96//20
f 69//20 97//20 37//20
f 47//20 82//20 69//20
f 134//29 92//29 106//29
f 57//20 98//20 47//20
f 35//20 62//20 57//20
f 62//20 40//20 98//20
f 79//29 95//29 120//29
f 40//20 50//20 81//20
f 50//20 31//20 99//20
f 131//20 111//20 112//20
f 134//20 115//20 116//20
f 136//20 118//20 106//20
f 137//20 119//20 120//20
f 139//20 122//20 107//20
f 124//20 140//20 105//20
f 102//20 113//20 110//20
f 114//20 103//20 127//20
f 118//20 128//20 100//20
f 104//20 121//20 118//20
f 122//20 129//20 101//20
f 105//20 125//20 122//20
f 130//20 112//20 110//20
f 107//20 101//20 131//20
f 111//20 132//20 102//20
f 101//20 109//20 111//20
f 116//20 103//20 133//20
f 106//20 100//20 134//20
f 115//20 135//20 103//20
f 100//20 108//20 115//20
f 120//20 104//20 136//20
f 104//20 119//20 121//20
f 124//20 105//20 139//20
f 123//20 141//20 105//20
f 85//27 75//27 127//27
f 130//29 88//29 112//29
f 98//26 81//26 140//26
f 138//28 96//28 121//28
f 70//28 93//28 108//28
f 84//27 72//27 126//27
f 125//28 83//28 129//28
f 90//28 74//28 132//28
f 142//30 143//30 146//30
f 155//31 145//31 157//31
f 148//32 144//32 153//32
f 19//33 20//33 148//33
f 20//34 18//34 149//34
f 17//35 19//35 146//35
f 1//36 4//36 142//36
f 5//4 8//4 144//4
f 143//49 4//49 145//49
f 5//50 1//50 144//50
f 151//28 150//28 153//28
f 150//39 142//39 152//39
f 152//40 146//40 153//40
f 144//41 142//41 151//41
f 154//29 155//29 156//29
f 147//42 143//42 156//42
f 149//43 147//43 157//43
f 154//44 143//44 155//44
f 161//16 158//16 165//16
f 3//5 4//5 160//5
f 2//5 3//5 159//5
f 158//5 1//5 159//5
f 162//5 163//5 165//5
f 164//45 160//45 165//45
f 159//30 160//30 163//30
f 158//46 159//46 162//46
